<?xml version="1.0" encoding="utf-8"?>
<!-- Generator: Adobe Illustrator 23.0.1, SVG Export Plug-In . SVG Version: 6.00 Build 0)  -->
<svg version="1.1" id="Layer_1" xmlns="http://www.w3.org/2000/svg" xmlns:xlink="http://www.w3.org/1999/xlink" x="0px" y="0px"
	 viewBox="0 0 59 30" style="enable-background:new 0 0 59 30;" xml:space="preserve">
<style type="text/css">
	.st0{fill:#191919;}
</style>
<path class="st0" d="M6.2,3.2l3.6-0.7c0.7-0.7,0-1,0-1.5c0.7,0,1.5,0.7,2.2,1.5c1.5,0,2.2,0,4.4,0.7c-1.5,1.5-2.2,1.5-3.6,1.5
	c0,0.7,0,0.7-0.7,1.5c0-0.7,0-0.7,0-1.5c-4.4,0-4.4-1.5-5.1-0.7c0,0-0.7-0.7-1.5,0C5.2,4.2,4.7,4.6,4,4.6c0.7-0.7,0.7-0.7,0.7-0.7
	C5.5,3.2,4.2,2.5,4,1.7C4.7,1.7,5.5,2.7,6.2,3.2"/>
</svg>
